<svg width="66" height="66" viewBox="0 0 66 66" fill="none" xmlns="http://www.w3.org/2000/svg">
<g clip-path="url(#clip0_175_842)">
<path d="M63.2769 39.2906L59.3581 40.6106L55.955 21.9244L64.7 18.4181C64.9519 18.3179 65.1816 18.1691 65.3759 17.9801C65.5703 17.7911 65.7255 17.5657 65.8328 17.3167C65.9401 17.0678 65.9972 16.8001 66.001 16.529C66.0048 16.258 65.9552 15.9888 65.855 15.7369C65.7548 15.485 65.6059 15.2553 65.417 15.061C65.228 14.8666 65.0026 14.7113 64.7536 14.6041C64.5046 14.4968 64.2369 14.4397 63.9659 14.4359C63.6948 14.4321 63.4256 14.4817 63.1737 14.5819L52.8612 18.7069C52.4118 18.8773 52.0361 19.1993 51.7988 19.6173C51.5616 20.0353 51.4778 20.5231 51.5619 20.9963V21.3675L46.6325 23.8219C46.29 23.9956 45.9059 24.0703 45.5232 24.0375C45.1406 24.0047 44.7748 23.8658 44.4669 23.6363L39.455 19.8C38.384 18.9968 37.0813 18.5625 35.7425 18.5625H30.1531C29.3935 18.5629 28.6488 18.773 28.001 19.1697C27.3532 19.5664 26.8275 20.1342 26.4819 20.8106L22.79 20.625C22.4324 20.6099 22.077 20.6881 21.7587 20.8519L18.3144 22.5638L12.3744 21.0788V20.8106C12.4182 20.3922 12.3331 19.9703 12.1303 19.6017C11.9275 19.233 11.6169 18.9352 11.24 18.7481L2.98999 14.6231C2.50923 14.423 1.97054 14.412 1.48207 14.5926C0.993594 14.7731 0.591501 15.1318 0.356518 15.5965C0.121535 16.0613 0.0710585 16.5977 0.215223 17.0981C0.359387 17.5985 0.687519 18.0259 1.13374 18.2944L8.12561 21.8006L6.43436 40.4869L2.72186 39.2494C2.45508 39.1627 2.17383 39.1294 1.89418 39.1515C1.61453 39.1735 1.34196 39.2504 1.09202 39.3777C0.842088 39.5051 0.619686 39.6804 0.437515 39.8938C0.255345 40.1071 0.116973 40.3542 0.0303009 40.621C-0.0563716 40.8877 -0.0896474 41.169 -0.0676267 41.4486C-0.045606 41.7283 0.0312799 42.0009 0.158641 42.2508C0.286003 42.5007 0.461345 42.7231 0.674658 42.9053C0.88797 43.0875 1.13508 43.2259 1.40186 43.3125L7.58936 45.375C7.80836 45.4047 8.03037 45.4047 8.24936 45.375C8.65 45.3671 9.04139 45.2533 9.38374 45.045C9.64552 44.8743 9.8651 44.6464 10.0259 44.3784C10.1867 44.1105 10.2845 43.8095 10.3119 43.4981L10.4769 41.58L13.1375 42.9C13.3843 44.4308 14.1842 45.8179 15.3856 46.7981L27.2862 55.3369C27.7093 55.686 28.1977 55.9472 28.7229 56.1052C29.2481 56.2633 29.7995 56.315 30.3449 56.2574C30.8903 56.1998 31.4188 56.034 31.8994 55.7697C32.3799 55.5054 32.803 55.1479 33.1437 54.7182C33.9287 55.0164 34.7675 55.1467 35.6059 55.1005C36.4444 55.0543 37.2638 54.8327 38.0112 54.45L49.1694 48.8813C49.8428 48.5411 50.4259 48.0458 50.8705 47.4363C51.3152 46.8267 51.6087 46.1202 51.7269 45.375C51.7475 45.1555 51.7475 44.9345 51.7269 44.715L55.6456 43.4156V43.6631C55.6979 43.9525 55.8114 44.2274 55.9786 44.4692C56.1458 44.7111 56.3628 44.9145 56.615 45.0656C56.9551 45.2767 57.3492 45.3841 57.7494 45.375C57.973 45.3709 58.1951 45.3362 58.4094 45.2719L64.5969 43.2094C64.8542 43.1227 65.0919 42.9862 65.2965 42.8077C65.501 42.6291 65.6684 42.4121 65.789 42.1688C65.9097 41.9256 65.9813 41.661 65.9997 41.3901C66.0181 41.1192 65.9829 40.8473 65.8962 40.59C65.8096 40.3327 65.6731 40.095 65.4945 39.8904C65.316 39.6859 65.0989 39.5185 64.8557 39.3978C64.6124 39.2772 64.3478 39.2056 64.0769 39.1872C63.806 39.1688 63.5342 39.204 63.2769 39.2906ZM17.9019 43.5394C17.5757 43.2678 17.3413 42.9023 17.2305 42.4925C17.1198 42.0828 17.1382 41.6489 17.2831 41.25C17.3038 41.1784 17.3435 41.1138 17.398 41.063C17.4524 41.0121 17.5196 40.977 17.5925 40.9613C17.7162 40.9613 17.8812 40.9613 18.1287 41.1263L30.6069 50.1394L29.9262 52.2019L17.9019 43.5394ZM47.3131 45.1894L36.155 50.7582C35.6693 51.0048 35.1058 51.0493 34.5875 50.8819C34.7204 50.1493 34.6526 49.3943 34.3911 48.6971C34.1297 47.9999 33.6844 47.3865 33.1025 46.9219L20.7275 37.9088C20.1408 37.4419 19.4484 37.1263 18.7112 36.9897C17.9739 36.853 17.2144 36.8995 16.4994 37.125C15.5151 37.4098 14.6569 38.0207 14.0656 38.8575L11.2606 37.455C11.1429 37.4018 11.0177 37.367 10.8894 37.3519L11.9825 25.3275L18.17 26.8538L18.5619 26.8125C18.8847 26.8106 19.2026 26.7329 19.49 26.5856L23.12 24.75H24.4606L22.9137 27.8644C22.6691 28.3515 22.6272 28.9156 22.7973 29.4335C22.9673 29.9514 23.3355 30.3809 23.8212 30.6281L24.2544 30.855C25.5971 31.5288 27.139 31.691 28.5925 31.3115C30.046 30.932 31.3118 30.0366 32.1537 28.7925H34.2162L47.375 43.8281C47.4292 43.9357 47.4912 44.0391 47.5606 44.1375C47.6314 44.2011 47.684 44.2824 47.713 44.373C47.742 44.4636 47.7463 44.5603 47.7256 44.6531C47.7348 44.7609 47.7123 44.869 47.6611 44.9642C47.6098 45.0595 47.5319 45.1377 47.4369 45.1894H47.3131ZM50.1181 40.92L36.5881 25.4513C36.3971 25.2339 36.1626 25.0591 35.8996 24.9382C35.6367 24.8174 35.3512 24.7533 35.0619 24.75H30.9369C30.556 24.7512 30.1829 24.8578 29.8589 25.058C29.5349 25.2582 29.2726 25.5443 29.1012 25.8844L28.8744 26.3175C28.6557 26.7522 28.2904 27.0955 27.8431 27.2869L30.1531 22.6875H35.7425C36.1888 22.6875 36.623 22.8323 36.98 23.1L42.095 26.9363C43.0146 27.624 44.1074 28.0423 45.2512 28.1442C46.3949 28.2462 47.5445 28.0279 48.5712 27.5138L52.4281 25.5956L54.9237 39.3319L50.1181 40.92Z" fill="#4678FF"/>
</g>
<defs>
<clipPath id="clip0_175_842">
<rect width="66" height="66" fill="white"/>
</clipPath>
</defs>
</svg>
