<svg width="87" height="86" viewBox="0 0 87 86" fill="none" xmlns="http://www.w3.org/2000/svg">
<path d="M22 27.7708H25.5833M22 38.5208H25.5833M39.9167 38.5208H43.5M39.9167 49.2708H43.5M22 49.2708H25.5833M39.9167 27.7708H43.5M25.5833 77.9375V67.1875C25.5833 63.2293 28.792 60.0208 32.75 60.0208C36.7081 60.0208 39.9167 63.2293 39.9167 67.1875V77.9375H25.5833ZM25.5833 77.9375H11.25V19.1708C11.25 17.164 11.25 16.1605 11.6405 15.394C11.9841 14.7198 12.5323 14.1716 13.2065 13.828C13.973 13.4375 14.9765 13.4375 16.9833 13.4375H48.5167C50.5237 13.4375 51.527 13.4375 52.2935 13.828C52.9679 14.1716 53.5158 14.7198 53.8594 15.394C54.25 16.1605 54.25 17.164 54.25 19.1708V34.9375M71.0917 51.0625C71.0917 54.0309 68.6851 56.4375 65.7167 56.4375C62.7482 56.4375 60.3417 54.0309 60.3417 51.0625C60.3417 48.0941 62.7482 45.6875 65.7167 45.6875C68.6851 45.6875 71.0917 48.0941 71.0917 51.0625ZM77.5417 77.9375V76.1458C77.5417 71.1983 73.5308 67.1875 68.5833 67.1875H63.2083C58.2608 67.1875 54.25 71.1983 54.25 76.1458V77.9375H77.5417Z" stroke="white" stroke-width="6" stroke-linecap="round" stroke-linejoin="round"/>
</svg>
