<svg width="109" height="118" viewBox="0 0 109 118" fill="none" xmlns="http://www.w3.org/2000/svg">
<ellipse cx="69.5343" cy="17.859" rx="19.4191" ry="17.859" fill="#0048D3"/>
<ellipse cx="87.8379" cy="61.9497" rx="13.1836" ry="12.1245" fill="#00DDFF"/>
<path d="M98.5462 77.1374C98.5462 77.1374 72.5352 120.064 32.0839 102.205C12.5358 93.5751 9.12464 68.2998 14.2783 53.3801C19.4321 38.4603 43.14 23.3966 53.6508 33.3909C64.1616 43.3852 68.8487 34.3832 71.6444 44.3686C75.461 58.0005 64.6963 79.1035 38.3291 79.1035C38.3291 79.1035 55.5007 114.5 98.5462 77.1374Z" fill="#0048D3"/>
<path d="M60.955 76.6453C65.0099 74.1592 68.7258 69.8025 70.6414 67.3382C71.1764 66.6498 72.4375 66.8479 72.8249 67.6289C73.7585 69.5109 75.6469 72.2959 79.2669 74.5153C82.9505 76.7738 86.7106 77.0452 89.7669 76.6407C90.9135 76.4889 92.1008 78.4712 91.2009 79.1978C86.274 83.1763 78.2631 88.5751 68.9719 90.7359C52.9377 94.4648 42.9609 81.5606 42.9609 81.5606C42.9609 81.5606 50.8837 82.8201 60.955 76.6453Z" fill="#00DDFF"/>
</svg>
