<svg width="834" height="153" viewBox="0 0 834 153" fill="none" xmlns="http://www.w3.org/2000/svg">
<path d="M81.9256 50.9712C97.231 50.9712 109.638 39.5609 109.638 25.4856C109.638 11.4103 97.231 0 81.9256 0C66.6203 0 54.2129 11.4103 54.2129 25.4856C54.2129 39.5609 66.6203 50.9712 81.9256 50.9712Z" fill="#0048D3"/>
<path d="M108.049 105.708C118.439 105.708 126.863 97.9615 126.863 88.4057C126.863 78.85 118.439 71.1035 108.049 71.1035C97.6577 71.1035 89.2344 78.85 89.2344 88.4057C89.2344 97.9615 97.6577 105.708 108.049 105.708Z" fill="#00DDFF"/>
<path d="M123.329 110.078C123.329 110.078 86.2089 171.337 28.4818 145.852C0.585054 133.536 -4.28274 97.4674 3.07104 76.1763C10.4262 54.885 44.2596 33.3884 59.2597 47.6508C74.2599 61.9131 80.9486 49.0668 84.9373 63.3165C90.3845 82.7698 75.0219 112.885 37.3939 112.885C37.3939 112.885 61.8999 163.397 123.329 110.078Z" fill="#0048D3"/>
<path d="M69.6829 109.378C75.4698 105.83 80.7728 99.6132 83.5057 96.0965C84.2692 95.1141 86.0687 95.3968 86.6224 96.5114C87.9553 99.1971 90.6497 103.172 95.8157 106.338C101.073 109.562 106.439 109.949 110.8 109.372C112.437 109.155 114.131 111.984 112.847 113.021C105.815 118.698 94.3829 126.402 81.1239 129.486C58.242 134.808 44.0039 116.393 44.0039 116.393C44.0039 116.393 55.3107 118.19 69.6829 109.378Z" fill="#00DDFF"/>
<path d="M226.526 56.9878L226.067 75.6341H175.561V71.7878C179.045 71.7878 181.289 71.2861 182.292 70.2827C183.295 69.2794 183.798 67.5512 183.798 65.0986V29.478C183.798 27.8615 183.631 26.6073 183.295 25.7154C182.99 24.7956 182.236 24.085 181.038 23.5832C179.868 23.0536 178.042 22.7889 175.561 22.7889V18.9424H222.596L223.349 33.6589H219.503C218.639 30.3979 217.635 28.0706 216.492 26.677C215.378 25.2556 214.109 24.3915 212.688 24.085C211.295 23.7505 209.19 23.5832 206.374 23.5832H195.755V43.6092H201.525C203.504 43.6092 204.981 43.442 205.956 43.1075C206.932 42.7452 207.614 42.0763 208.005 41.1008C208.395 40.1252 208.66 38.5923 208.8 36.5018H212.813V55.3572H208.967C208.856 53.2669 208.576 51.734 208.131 50.7584C207.684 49.7549 206.974 49.0861 205.999 48.7516C205.051 48.4171 203.587 48.2498 201.608 48.2498H195.755V61.5866C195.755 63.8165 195.811 65.4469 195.922 66.4782C196.034 67.5094 196.326 68.3735 196.8 69.0703C197.302 69.7392 198.097 70.2269 199.183 70.5336C200.298 70.8401 201.873 70.9934 203.908 70.9934H208.465C210.389 70.9934 212.214 70.7565 213.942 70.2827C215.697 69.781 217.413 68.5267 219.085 66.52C220.756 64.4853 221.928 61.3079 222.596 56.9878H226.526ZM293.421 22.7889C290.718 22.7889 288.78 23.0676 287.61 23.625C286.44 24.1546 285.715 24.9489 285.436 26.008C285.157 27.0672 285.018 28.7952 285.018 31.1922V76.1359H281.171L244.086 32.0703V63.3008C244.086 65.6699 244.226 67.3979 244.505 68.4849C244.811 69.5441 245.563 70.3664 246.762 70.9517C247.961 71.5091 249.898 71.7878 252.573 71.7878V75.6341H231.502V71.7878C234.011 71.7878 235.822 71.5091 236.937 70.9517C238.08 70.3664 238.776 69.5441 239.027 68.4849C239.306 67.3979 239.446 65.6699 239.446 63.3008V34.3697C239.446 32.0285 239.376 30.2725 239.237 29.1019C239.126 27.9313 238.832 26.9139 238.358 26.0499C237.884 25.1579 237.104 24.4473 236.018 23.9177C234.959 23.3602 233.48 22.984 231.585 22.7889V18.9424H248.101L280.377 57.0714V31.1922C280.377 29.0739 280.223 27.4573 279.916 26.3425C279.638 25.1998 278.913 24.3218 277.743 23.7086C276.6 23.0954 274.775 22.7889 272.266 22.7889V18.9424H293.421V22.7889ZM351.328 75.6341H324.611V71.7878C326.869 71.7878 328.513 71.6346 329.545 71.3279C330.576 70.9934 331.092 70.2269 331.092 69.0285C331.092 68.1924 330.925 67.3423 330.589 66.4782L327.914 59.7889H309.518L308.138 63.468C307.358 65.5305 306.968 67.0216 306.968 67.9415C306.968 69.6137 307.609 70.6729 308.89 71.1188C310.201 71.5648 311.72 71.7878 313.449 71.7878V75.6341H293.923V71.7878C295.484 71.7878 296.807 71.4951 297.895 70.9099C298.982 70.3245 300.014 69.2236 300.989 67.607C301.992 65.9626 303.065 63.6492 304.208 60.6669L320.555 17.8555H324.527L341.795 62.0047C343.049 65.1264 343.968 67.2447 344.553 68.3595C345.14 69.4466 345.948 70.2967 346.979 70.9099C348.01 71.4951 349.46 71.7878 351.328 71.7878V75.6341ZM326.409 55.6917L318.59 35.9166L311.148 55.6917H326.409ZM406.515 35.0385H402.543C402.181 31.5267 401.4 28.9346 400.203 27.2623C399.031 25.5899 397.764 24.5587 396.398 24.1684C395.032 23.7783 393.457 23.5832 391.673 23.5832H384.482V65.0986C384.482 66.7429 384.649 68.0251 384.984 68.9449C385.318 69.8368 386.099 70.5336 387.325 71.0352C388.552 71.537 390.349 71.7878 392.718 71.7878V75.6341H364.289V71.7878C367.772 71.7878 370.015 71.2861 371.019 70.2827C372.022 69.2794 372.524 67.5512 372.524 65.0986V23.5832H366.503C364.134 23.5832 362.169 23.7783 360.608 24.1684C359.048 24.5309 357.668 25.5621 356.47 27.2623C355.299 28.9346 354.63 31.5267 354.463 35.0385H350.492V18.9424H406.515V35.0385ZM479.096 33.6589H475.166C474.47 30.5094 473.535 28.21 472.365 26.7607C471.222 25.3112 469.926 24.4193 468.476 24.085C467.055 23.7505 465.062 23.5832 462.498 23.5832H452.38V43.6092H457.69C460.199 43.6092 461.898 43.1773 462.79 42.3132C463.682 41.4491 464.212 39.5399 464.379 36.5855H468.226V55.4409H464.296C464.156 53.2669 463.892 51.706 463.501 50.7584C463.139 49.8107 462.498 49.1557 461.577 48.7934C460.685 48.4311 459.334 48.2498 457.523 48.2498H452.38V65.0986C452.38 67.3841 452.826 69.0703 453.718 70.1573C454.637 71.2443 456.798 71.7878 460.199 71.7878H461.369V75.6341H432.269V71.7878C435.726 71.7878 437.942 71.2861 438.918 70.2827C439.921 69.2514 440.422 67.5234 440.422 65.0986V29.478C440.422 27.8615 440.255 26.6073 439.921 25.7154C439.586 24.7956 438.82 24.085 437.621 23.5832C436.451 23.0536 434.667 22.7889 432.269 22.7889V18.9424H478.678L479.096 33.6589ZM548.457 47.2883C548.457 52.4446 547.231 57.2805 544.778 61.7956C542.325 66.2831 538.689 69.8926 533.867 72.6239C529.072 75.3276 523.4 76.6793 516.85 76.6793C511.498 76.6793 506.788 75.8154 502.719 74.0872C498.649 72.3592 495.318 70.0458 492.726 67.1471C490.162 64.2485 488.253 61.071 486.998 57.6148C485.772 54.1588 485.159 50.6887 485.159 47.2047C485.159 42.1599 486.343 37.3937 488.712 32.9064C491.081 28.419 494.649 24.8096 499.415 22.0781C504.182 19.3188 509.881 17.9391 516.515 17.9391C522.564 17.9391 527.706 18.9286 531.943 20.9075C536.18 22.8864 539.482 25.381 541.851 28.3911C544.221 31.4013 545.907 34.5648 546.91 37.8815C547.942 41.1704 548.457 44.3061 548.457 47.2883ZM534.911 47.121C534.911 43.9437 534.633 40.9335 534.075 38.0906C533.545 35.2476 532.598 32.6833 531.232 30.3979C529.866 28.0845 527.998 26.2589 525.629 24.9211C523.26 23.5554 520.333 22.8724 516.85 22.8724C512.056 22.8724 508.307 24.071 505.603 26.468C502.927 28.837 501.102 31.8194 500.126 35.4148C499.178 38.9825 498.704 42.8846 498.704 47.121C498.704 49.4624 498.857 51.9011 499.164 54.4375C499.471 56.9738 500.21 59.5799 501.38 62.2556C502.551 64.9035 504.419 67.1471 506.983 68.9867C509.547 70.7983 512.864 71.7042 516.933 71.7042C520.976 71.7042 524.249 70.7705 526.758 68.9031C529.296 67.0078 531.135 64.7084 532.277 62.0047C533.448 59.2734 534.173 56.6673 534.452 54.1866C534.758 51.706 534.911 49.3508 534.911 47.121ZM615.854 75.6341H600.677C600.119 75.0209 599.423 74.129 598.586 72.9584C597.779 71.7878 596.887 70.4221 595.911 68.8612C594.936 67.2725 594.127 65.9626 593.486 64.9313L589.64 58.5765C587.912 55.7336 586.602 53.7965 585.71 52.7652C584.845 51.706 583.842 51.0371 582.699 50.7584C581.584 50.4518 579.675 50.2985 576.972 50.2985H574.84V65.0986C574.84 66.6593 575.007 67.9135 575.341 68.8612C575.676 69.8089 576.455 70.5336 577.682 71.0352C578.937 71.537 580.748 71.7878 583.117 71.7878V75.6341H554.688V71.7878C558.143 71.7878 560.359 71.2861 561.335 70.2827C562.338 69.2794 562.839 67.5512 562.839 65.0986V29.3109C562.839 26.886 562.353 25.1719 561.376 24.1684C560.429 23.1373 558.198 22.6217 554.688 22.6217V18.6917L567.815 18.2736C568.819 18.2178 569.962 18.176 571.243 18.1482C572.553 18.1203 573.766 18.1063 574.881 18.1063C575.744 18.1063 577.18 18.1342 579.188 18.19C582.002 18.2736 584.637 18.4408 587.09 18.6917C589.541 18.9424 591.479 19.263 592.901 19.6533C594.992 20.1828 596.969 21.0608 598.837 22.2872C600.733 23.5136 602.265 25.1301 603.437 27.1368C604.636 29.1437 605.234 31.4709 605.234 34.1188C605.234 36.0141 604.817 37.8537 603.981 39.6375C603.172 41.4213 601.847 43.01 600.008 44.4035C598.197 45.7972 595.799 46.8981 592.817 47.7064C594.852 48.9049 596.58 50.3961 598.001 52.1799C599.423 53.9358 601.653 57.1829 604.691 61.9211C606.447 64.6248 607.897 66.6733 609.038 68.067C610.181 69.4326 611.227 70.3664 612.175 70.8681C613.15 71.3419 614.377 71.6484 615.854 71.7878V75.6341ZM592.357 34.0352C592.357 29.5199 590.977 26.5236 588.219 25.0465C585.487 23.5692 581.905 22.8306 577.473 22.8306C576.86 22.8306 576.372 22.8446 576.01 22.8724C575.676 22.8724 575.285 22.8724 574.84 22.8724V45.6578H577.473C581.682 45.6578 585.207 44.9749 588.05 43.6092C590.921 42.2435 592.357 39.0521 592.357 34.0352ZM668.868 56.9878L668.408 75.6341H617.902V71.7878C621.387 71.7878 623.63 71.2861 624.633 70.2827C625.637 69.2794 626.139 67.5512 626.139 65.0986V29.478C626.139 27.8615 625.972 26.6073 625.637 25.7154C625.33 24.7956 624.578 24.085 623.379 23.5832C622.209 23.0536 620.384 22.7889 617.902 22.7889V18.9424H664.937L665.691 33.6589H661.843C660.98 30.3979 659.977 28.0706 658.834 26.677C657.719 25.2556 656.45 24.3915 655.029 24.085C653.635 23.7505 651.531 23.5832 648.716 23.5832H638.097V43.6092H643.866C645.846 43.6092 647.323 43.442 648.298 43.1075C649.274 42.7452 649.956 42.0763 650.347 41.1008C650.736 40.1252 651.002 38.5923 651.14 36.5018H655.155V55.3572H651.309C651.197 53.2669 650.918 51.734 650.472 50.7584C650.026 49.7549 649.315 49.0861 648.34 48.7516C647.391 48.4171 645.929 48.2498 643.949 48.2498H638.097V61.5866C638.097 63.8165 638.152 65.4469 638.264 66.4782C638.375 67.5094 638.667 68.3735 639.141 69.0703C639.644 69.7392 640.437 70.2269 641.525 70.5336C642.639 70.8401 644.215 70.9934 646.25 70.9934H650.806C652.73 70.9934 654.555 70.7565 656.284 70.2827C658.039 69.781 659.754 68.5267 661.425 66.52C663.098 64.4853 664.269 61.3079 664.937 56.9878H668.868ZM702.441 75.6341H673.675V71.7878C676.073 71.7878 677.885 71.5648 679.111 71.1188C680.337 70.6451 681.132 69.9482 681.494 69.0285C681.884 68.1088 682.079 66.7987 682.079 65.0986V29.478C682.079 27.0254 681.564 25.2974 680.533 24.2939C679.529 23.2905 677.243 22.7889 673.675 22.7889V18.9424H702.441V22.7889C700.044 22.7889 698.231 23.0258 697.005 23.4996C695.78 23.9734 694.97 24.6702 694.581 25.5899C694.218 26.4818 694.037 27.7779 694.037 29.478V65.0986C694.037 66.7151 694.218 67.9833 694.581 68.9031C694.943 69.8228 695.71 70.5336 696.88 71.0352C698.079 71.537 699.932 71.7878 702.441 71.7878V75.6341ZM769.837 53.2669C768.22 53.4342 766.994 53.6989 766.158 54.0612C765.35 54.3957 764.792 54.9949 764.485 55.859C764.178 56.6951 764.026 58.0051 764.026 59.7889V73.0839C759.984 73.0839 755.609 73.6135 750.898 74.6726C747.497 75.4251 744.947 75.9407 743.246 76.2195C741.546 76.5261 739.54 76.6793 737.226 76.6793C731.094 76.6793 725.84 75.244 721.464 72.3731C717.087 69.5023 713.799 65.8092 711.597 61.294C709.423 56.7787 708.336 52.1381 708.336 47.3719C708.336 41.909 709.632 36.9339 712.224 32.4464C714.817 27.9313 718.329 24.3915 722.76 21.8272C727.191 19.2351 732.042 17.9391 737.309 17.9391C743.72 17.9391 749.559 20.1549 754.828 24.5866C755.469 23.3881 755.984 21.7436 756.375 19.6533H760.429L760.848 38.216H757.002C756.417 35.4009 755.315 32.8228 753.699 30.4815C752.082 28.1403 750.062 26.2867 747.637 24.9211C745.24 23.5554 742.591 22.8724 739.692 22.8724C737.575 22.8724 735.498 23.2487 733.463 24.0013C731.428 24.726 729.519 26.008 727.735 27.8476C725.98 29.6593 724.558 32.1399 723.471 35.2894C722.412 38.4389 721.882 42.3272 721.882 46.9538C721.882 50.9117 722.301 54.7162 723.137 58.3675C723.973 62.0187 725.673 65.1542 728.237 67.7743C730.802 70.3942 734.425 71.7042 739.107 71.7042C742.786 71.7042 745.573 71.1328 747.469 69.99C749.365 68.8194 750.591 67.398 751.149 65.7256C751.734 64.0534 752.027 62.1859 752.027 60.1234C752.027 58.1724 751.873 56.7509 751.567 55.859C751.288 54.9671 750.605 54.3121 749.518 53.894C748.459 53.476 746.814 53.2669 744.585 53.2669V49.4206H769.837V53.2669ZM833.93 22.7889C831.227 22.7889 829.289 23.0676 828.119 23.625C826.949 24.1546 826.224 24.9489 825.946 26.008C825.666 27.0672 825.527 28.7952 825.527 31.1922V76.1359H821.68L784.596 32.0703V63.3008C784.596 65.6699 784.736 67.3979 785.014 68.4849C785.321 69.5441 786.073 70.3664 787.272 70.9517C788.47 71.5091 790.407 71.7878 793.083 71.7878V75.6341H772.012V71.7878C774.521 71.7878 776.331 71.5091 777.446 70.9517C778.589 70.3664 779.286 69.5441 779.537 68.4849C779.815 67.3979 779.955 65.6699 779.955 63.3008V34.3697C779.955 32.0285 779.885 30.2725 779.747 29.1019C779.635 27.9313 779.341 26.9139 778.867 26.0499C778.394 25.1579 777.613 24.4473 776.527 23.9177C775.468 23.3602 773.99 22.984 772.094 22.7889V18.9424H788.61L820.887 57.0714V31.1922C820.887 29.0739 820.732 27.4573 820.426 26.3425C820.147 25.1998 819.422 24.3218 818.252 23.7086C817.109 23.0954 815.284 22.7889 812.775 22.7889V18.9424H833.93V22.7889Z" fill="#00DDFF"/>
<path d="M221.619 125.823H222.891L222.122 136.996H192.387V135.778H193.127C194.91 135.778 196.057 135.539 196.57 135.064C197.099 134.587 197.434 133.987 197.576 133.263C197.717 132.521 197.788 130.65 197.788 127.649V110.041C197.788 107.305 197.708 105.504 197.55 104.639C197.409 103.775 197.065 103.174 196.517 102.839C195.987 102.486 194.857 102.309 193.127 102.309V101.092H218.786L219.633 110.041H218.388C217.823 107.535 217.127 105.761 216.296 104.719C215.484 103.661 214.514 102.998 213.383 102.733C212.255 102.45 210.437 102.309 207.929 102.309H202.951V117.376H206.765C208.511 117.376 209.73 117.226 210.418 116.926C211.124 116.625 211.584 116.176 211.795 115.575C212.025 114.957 212.139 113.765 212.139 112H213.383V124.287H212.139C212.139 122.292 211.972 120.959 211.637 120.288C211.301 119.601 210.806 119.158 210.154 118.964C209.517 118.753 208.433 118.647 206.896 118.647H202.951V127.147C202.951 131.401 203.225 133.907 203.772 134.666C204.32 135.408 205.793 135.778 208.195 135.778H210.869C212.757 135.778 214.311 135.539 215.528 135.064C216.747 134.569 217.903 133.571 218.998 132.072C220.109 130.553 220.984 128.47 221.619 125.823ZM249.713 130.8L262.793 101.092H273.809V102.309H272.485C270.72 102.309 269.564 102.46 269.017 102.76C268.469 103.043 268.099 103.581 267.904 104.375C267.728 105.169 267.64 107.058 267.64 110.041V127.649C267.64 130.473 267.71 132.327 267.851 133.21C267.992 134.075 268.346 134.719 268.911 135.143C269.494 135.566 270.597 135.778 272.221 135.778H273.809V136.996H256.651V135.778H257.921C259.44 135.778 260.49 135.584 261.072 135.195C261.673 134.807 262.053 134.208 262.211 133.396C262.388 132.565 262.477 130.65 262.477 127.649V104.799L248.257 136.996H247.013L232.688 104.799V125.823C232.688 128.699 232.776 130.659 232.952 131.701C233.129 132.742 233.675 133.66 234.594 134.455C235.512 135.231 236.8 135.672 238.46 135.778V136.996H225.618V135.778C227.153 135.691 228.398 135.275 229.351 134.533C230.322 133.775 230.914 132.848 231.125 131.753C231.336 130.659 231.443 128.63 231.443 125.664V110.041C231.443 107.181 231.355 105.337 231.178 104.507C231.019 103.678 230.665 103.104 230.119 102.786C229.589 102.469 228.415 102.309 226.597 102.309H225.618V101.092H236.554L249.713 130.8ZM287.341 120.103V127.649C287.341 130.473 287.402 132.327 287.526 133.21C287.666 134.075 288.029 134.719 288.611 135.143C289.193 135.566 290.288 135.778 291.895 135.778H293.086V136.996H276.643V135.778H277.597C279.132 135.778 280.191 135.584 280.773 135.195C281.374 134.807 281.754 134.208 281.912 133.396C282.071 132.565 282.151 130.65 282.151 127.649V110.041C282.151 107.181 282.071 105.337 281.912 104.507C281.754 103.678 281.4 103.104 280.853 102.786C280.305 102.469 279.122 102.309 277.304 102.309H276.643V101.092L281.144 100.933C284.745 100.809 287.552 100.748 289.564 100.748C293.272 100.748 296.123 101.039 298.117 101.621C300.13 102.204 301.771 103.237 303.043 104.719C304.332 106.202 304.975 108.073 304.975 110.332C304.975 112.291 304.534 114.022 303.651 115.522C302.786 117.023 301.533 118.161 299.892 118.938C298.268 119.715 295.398 120.103 291.285 120.103H287.341ZM287.341 118.779H289.908C291.975 118.779 293.643 118.576 294.913 118.171C296.184 117.747 297.243 116.872 298.091 115.549C298.939 114.225 299.361 112.592 299.361 110.65C299.361 107.685 298.629 105.513 297.163 104.137C295.716 102.742 293.36 102.045 290.094 102.045C288.894 102.045 287.976 102.081 287.341 102.151V118.779ZM337.677 126.432L337.413 136.996H306.909V135.778H307.968C309.503 135.778 310.562 135.584 311.145 135.195C311.745 134.807 312.125 134.208 312.283 133.396C312.46 132.565 312.549 130.65 312.549 127.649V110.041C312.549 107.181 312.46 105.337 312.283 104.507C312.125 103.678 311.771 103.104 311.225 102.786C310.695 102.469 309.521 102.309 307.702 102.309H306.909V101.092H324.147V102.309H322.557C320.792 102.309 319.636 102.46 319.089 102.76C318.541 103.043 318.17 103.581 317.976 104.375C317.801 105.169 317.712 107.058 317.712 110.041V128.841C317.712 131.437 317.782 133.061 317.923 133.713C318.065 134.366 318.444 134.879 319.062 135.248C319.697 135.602 321.049 135.778 323.114 135.778H325.841C328.047 135.778 329.681 135.584 330.74 135.195C331.816 134.807 332.832 133.96 333.785 132.654C334.756 131.348 335.638 129.273 336.433 126.432H337.677ZM339.875 118.806C339.875 113.263 341.729 108.815 345.436 105.46C349.142 102.106 353.767 100.43 359.31 100.43C364.906 100.43 369.575 102.089 373.319 105.407C377.077 108.727 378.958 113.255 378.958 118.991C378.958 124.551 377.157 129.053 373.557 132.495C369.973 135.937 365.251 137.658 359.39 137.658C353.688 137.658 349.011 135.937 345.356 132.495C341.701 129.053 339.875 124.49 339.875 118.806ZM345.938 118.991C345.938 124.764 347.086 129.098 349.381 131.992C351.694 134.887 355.153 136.334 359.761 136.334C363.803 136.334 366.998 134.887 369.347 131.992C371.695 129.098 372.868 124.781 372.868 119.044C372.868 113.466 371.712 109.195 369.4 106.228C367.086 103.245 363.733 101.754 359.337 101.754C355.012 101.754 351.694 103.21 349.381 106.122C347.086 109.018 345.938 113.307 345.938 118.991ZM398.605 121.295L405.676 109.406C406.841 107.464 407.423 106.087 407.423 105.275C407.423 104.534 407.115 103.855 406.497 103.237C405.879 102.619 404.776 102.309 403.186 102.309V101.092H414.917V102.309C413.293 102.539 411.978 103.148 410.971 104.137C409.983 105.108 408.712 106.881 407.159 109.459L399.109 122.883V127.649C399.109 130.703 399.197 132.654 399.374 133.501C399.568 134.331 399.965 134.923 400.564 135.275C401.182 135.611 402.384 135.778 404.166 135.778V136.996H388.861V135.778H389.445C390.98 135.778 392.039 135.584 392.621 135.195C393.222 134.807 393.602 134.208 393.76 133.396C393.919 132.565 393.998 130.65 393.998 127.649V123.228L385.048 108.532C383.23 105.567 382.021 103.802 381.42 103.237C380.821 102.654 379.743 102.345 378.191 102.309V101.092H392.754V102.309C390.035 102.309 388.675 102.927 388.675 104.163C388.675 104.658 389.126 105.646 390.027 107.128L398.605 121.295ZM440.099 130.8L453.18 101.092H464.194V102.309H462.871C461.106 102.309 459.948 102.46 459.402 102.76C458.855 103.043 458.484 103.581 458.29 104.375C458.113 105.169 458.025 107.058 458.025 110.041V127.649C458.025 130.473 458.096 132.327 458.237 133.21C458.379 134.075 458.731 134.719 459.296 135.143C459.879 135.566 460.982 135.778 462.606 135.778H464.194V136.996H447.036V135.778H448.308C449.825 135.778 450.875 135.584 451.459 135.195C452.058 134.807 452.438 134.208 452.596 133.396C452.773 132.565 452.862 130.65 452.862 127.649V104.799L438.642 136.996H437.398L423.072 104.799V125.823C423.072 128.699 423.161 130.659 423.338 131.701C423.513 132.742 424.061 133.66 424.979 134.455C425.897 135.231 427.185 135.672 428.845 135.778V136.996H416.003V135.778C417.538 135.691 418.783 135.275 419.736 134.533C420.706 133.775 421.299 132.848 421.51 131.753C421.722 130.659 421.828 128.63 421.828 125.664V110.041C421.828 107.181 421.74 105.337 421.563 104.507C421.404 103.678 421.052 103.104 420.504 102.786C419.974 102.469 418.8 102.309 416.982 102.309H416.003V101.092H426.939L440.099 130.8ZM496.208 125.823H497.479L496.712 136.996H466.975V135.778H467.716C469.5 135.778 470.647 135.539 471.158 135.064C471.688 134.587 472.023 133.987 472.164 133.263C472.306 132.521 472.377 130.65 472.377 127.649V110.041C472.377 107.305 472.297 105.504 472.139 104.639C471.997 103.775 471.653 103.174 471.105 102.839C470.576 102.486 469.446 102.309 467.716 102.309V101.092H493.375L494.221 110.041H492.977C492.413 107.535 491.715 105.761 490.886 104.719C490.074 103.661 489.102 102.998 487.972 102.733C486.843 102.45 485.025 102.309 482.518 102.309H477.54V117.376H481.353C483.1 117.376 484.319 117.226 485.007 116.926C485.713 116.625 486.173 116.176 486.384 115.575C486.614 114.957 486.728 113.765 486.728 112H487.972V124.287H486.728C486.728 122.292 486.561 120.959 486.225 120.288C485.89 119.601 485.396 119.158 484.743 118.964C484.108 118.753 483.022 118.647 481.486 118.647H477.54V127.147C477.54 131.401 477.814 133.907 478.361 134.666C478.909 135.408 480.381 135.778 482.783 135.778H485.458C487.346 135.778 488.9 135.539 490.117 135.064C491.336 134.569 492.492 133.571 493.586 132.072C494.698 130.553 495.573 128.47 496.208 125.823ZM532.537 137.817L507.144 104.163V129.079C507.144 131.144 507.241 132.504 507.435 133.158C507.647 133.81 508.23 134.411 509.183 134.957C510.136 135.505 511.566 135.778 513.473 135.778V136.996H500.074V135.778C501.786 135.655 503.092 135.345 503.993 134.851C504.893 134.339 505.423 133.793 505.581 133.21C505.758 132.627 505.846 131.251 505.846 129.079V110.041C505.846 107.288 505.714 105.443 505.45 104.507C505.201 103.572 504.796 102.971 504.231 102.707C503.684 102.442 502.449 102.309 500.523 102.309V101.092H511.115L532.379 129.185V107.712C532.379 106.122 532.21 105.011 531.875 104.375C531.558 103.739 530.896 103.237 529.89 102.866C528.882 102.495 527.674 102.309 526.262 102.309V101.092H539.289V102.309C537.772 102.433 536.572 102.724 535.688 103.184C534.823 103.642 534.267 104.199 534.02 104.852C533.79 105.487 533.676 106.573 533.676 108.109V137.817H532.537ZM542.414 109.724H541.195L541.381 101.092H576.228L576.413 109.724H575.274C574.869 107.358 574.312 105.654 573.606 104.614C572.901 103.553 572.142 102.91 571.33 102.68C570.518 102.433 569.132 102.309 567.173 102.309H561.4V127.649C561.4 130.456 561.461 132.301 561.586 133.183C561.725 134.067 562.088 134.719 562.67 135.143C563.252 135.566 564.347 135.778 565.954 135.778H567.702V136.996H549.802V135.778H551.656C553.191 135.778 554.25 135.584 554.833 135.195C555.433 134.807 555.813 134.208 555.971 133.396C556.148 132.565 556.235 130.65 556.235 127.649V102.309H550.914C548.602 102.309 547.048 102.425 546.253 102.654C545.46 102.866 544.709 103.528 544.002 104.639C543.315 105.751 542.785 107.446 542.414 109.724ZM614.649 123.758H601.012L600.086 126.034C598.708 129.336 598.021 131.489 598.021 132.495C598.021 133.571 598.382 134.392 599.107 134.957C599.847 135.505 600.792 135.778 601.939 135.778V136.996H591.268V135.778C592.857 135.531 594.039 134.976 594.817 134.111C595.593 133.227 596.529 131.382 597.622 128.577C597.711 128.311 598.135 127.288 598.894 125.504L609.327 100.588H610.359L622.355 129.106L623.996 132.865C624.367 133.713 624.861 134.383 625.479 134.879C626.114 135.355 627.059 135.655 628.312 135.778V136.996H614.199V135.778C615.929 135.778 617.094 135.655 617.694 135.408C618.312 135.143 618.621 134.63 618.621 133.873C618.621 133.483 618.215 132.327 617.403 130.403L614.649 123.758ZM614.199 122.566L607.845 107.261L601.516 122.566H614.199ZM651.005 121.666H666.495V122.936C664.783 122.936 663.618 123.113 663 123.466C662.399 123.802 662.003 124.376 661.809 125.188C661.614 125.981 661.517 127.923 661.517 131.013V134.826C661.094 134.754 660.714 134.719 660.379 134.719C659.02 134.719 657.236 135.134 655.03 135.963C652.029 137.093 649.249 137.658 646.689 137.658C641.552 137.658 637.28 135.973 633.873 132.601C630.465 129.212 628.763 124.922 628.763 119.732C628.763 114.596 630.387 110.094 633.635 106.228C636.883 102.362 641.296 100.43 646.874 100.43C651.676 100.43 655.648 102.195 658.79 105.725C659.372 104.49 659.744 103.157 659.902 101.727H661.173V113.721H659.902C659.39 110.032 657.987 107.111 655.692 104.958C653.414 102.804 650.643 101.727 647.378 101.727C644.006 101.727 641.067 102.98 638.56 105.487C636.052 107.993 634.799 112.443 634.799 118.831C634.799 125.205 636.01 129.724 638.427 132.388C640.846 135.037 643.847 136.361 647.431 136.361C649.266 136.361 650.934 135.99 652.435 135.248C653.935 134.489 654.96 133.571 655.507 132.495C656.053 131.418 656.327 130.059 656.327 128.417C656.327 126.493 656.194 125.213 655.93 124.578C655.683 123.925 655.295 123.492 654.764 123.281C654.235 123.051 653.264 122.936 651.852 122.936H651.005V121.666ZM698.773 125.823H700.044L699.277 136.996H669.54V135.778H670.283C672.065 135.778 673.212 135.539 673.725 135.064C674.254 134.587 674.59 133.987 674.731 133.263C674.872 132.521 674.942 130.65 674.942 127.649V110.041C674.942 107.305 674.862 105.504 674.704 104.639C674.562 103.775 674.218 103.174 673.672 102.839C673.141 102.486 672.012 102.309 670.283 102.309V101.092H695.94L696.788 110.041H695.543C694.978 107.535 694.28 105.761 693.451 104.719C692.639 103.661 691.669 102.998 690.539 102.733C689.408 102.45 687.59 102.309 685.084 102.309H680.105V117.376H683.918C685.667 117.376 686.884 117.226 687.573 116.926C688.28 116.625 688.738 116.176 688.95 115.575C689.179 114.957 689.294 113.765 689.294 112H690.539V124.287H689.294C689.294 122.292 689.126 120.959 688.79 120.288C688.455 119.601 687.961 119.158 687.308 118.964C686.673 118.753 685.587 118.647 684.051 118.647H680.105V127.147C680.105 131.401 680.379 133.907 680.927 134.666C681.474 135.408 682.948 135.778 685.348 135.778H688.023C689.912 135.778 691.465 135.539 692.684 135.064C693.901 134.569 695.058 133.571 696.151 132.072C697.265 130.553 698.138 128.47 698.773 125.823ZM735.102 137.817L709.709 104.163V129.079C709.709 131.144 709.806 132.504 710.001 133.158C710.212 133.81 710.795 134.411 711.748 134.957C712.701 135.505 714.131 135.778 716.038 135.778V136.996H702.639V135.778C704.351 135.655 705.659 135.345 706.558 134.851C707.458 134.339 707.988 133.793 708.147 133.21C708.323 132.627 708.411 131.251 708.411 129.079V110.041C708.411 107.288 708.28 105.443 708.015 104.507C707.768 103.572 707.361 102.971 706.796 102.707C706.249 102.442 705.014 102.309 703.09 102.309V101.092H713.682L734.944 129.185V107.712C734.944 106.122 734.777 105.011 734.442 104.375C734.123 103.739 733.461 103.237 732.455 102.866C731.449 102.495 730.24 102.309 728.827 102.309V101.092H741.855V102.309C740.337 102.433 739.137 102.724 738.253 103.184C737.388 103.642 736.833 104.199 736.585 104.852C736.357 105.487 736.241 106.573 736.241 108.109V137.817H735.102ZM776.649 123.519H777.788V136.096H776.649C776.331 134.666 775.757 133.404 774.928 132.31C771.767 135.876 767.734 137.658 762.826 137.658C757.636 137.658 753.392 136.016 750.09 132.734C746.807 129.45 745.165 125.108 745.165 119.706C745.165 116.157 745.924 112.822 747.442 109.697C748.961 106.555 751.079 104.224 753.797 102.707C756.516 101.189 759.498 100.43 762.746 100.43C765.431 100.43 767.858 100.986 770.029 102.098C772.218 103.192 773.851 104.41 774.928 105.751C775.687 104.251 776.145 102.697 776.304 101.092H777.47L777.788 114.702H776.649C775.854 109.865 774.23 106.502 771.777 104.614C769.341 102.724 766.587 101.78 763.516 101.78C759.755 101.78 756.763 103.307 754.539 106.36C752.332 109.414 751.228 113.784 751.228 119.468C751.228 124.852 752.439 128.982 754.856 131.859C757.275 134.719 760.285 136.149 763.885 136.149C765.81 136.149 767.778 135.681 769.79 134.746C771.803 133.81 773.391 132.23 774.557 130.007C775.74 127.765 776.436 125.601 776.649 123.519ZM801.777 121.295L808.847 109.406C810.013 107.464 810.595 106.087 810.595 105.275C810.595 104.534 810.286 103.855 809.668 103.237C809.05 102.619 807.947 102.309 806.358 102.309V101.092H818.089V102.309C816.465 102.539 815.149 103.148 814.143 104.137C813.154 105.108 811.884 106.881 810.33 109.459L802.281 122.883V127.649C802.281 130.703 802.368 132.654 802.545 133.501C802.739 134.331 803.137 134.923 803.737 135.275C804.355 135.611 805.555 135.778 807.339 135.778V136.996H792.033V135.778H792.615C794.151 135.778 795.211 135.584 795.793 135.195C796.393 134.807 796.772 134.208 796.932 133.396C797.091 132.565 797.171 130.65 797.171 127.649V123.228L788.22 108.532C786.402 105.567 785.193 103.802 784.592 103.237C783.993 102.654 782.915 102.345 781.361 102.309V101.092H795.926V102.309C793.208 102.309 791.848 102.927 791.848 104.163C791.848 104.658 792.299 105.646 793.198 107.128L801.777 121.295Z" fill="#0048D3"/>
</svg>
