<svg width="127" height="153" viewBox="0 0 127 153" fill="none" xmlns="http://www.w3.org/2000/svg">
<path d="M81.9256 50.9712C97.231 50.9712 109.638 39.5609 109.638 25.4856C109.638 11.4103 97.231 0 81.9256 0C66.6203 0 54.2129 11.4103 54.2129 25.4856C54.2129 39.5609 66.6203 50.9712 81.9256 50.9712Z" fill="#0048D3"/>
<path d="M108.049 105.708C118.439 105.708 126.863 97.9615 126.863 88.4057C126.863 78.85 118.439 71.1035 108.049 71.1035C97.6577 71.1035 89.2344 78.85 89.2344 88.4057C89.2344 97.9615 97.6577 105.708 108.049 105.708Z" fill="#00DDFF"/>
<path d="M123.329 110.078C123.329 110.078 86.2089 171.337 28.4818 145.852C0.585054 133.536 -4.28274 97.4674 3.07104 76.1763C10.4262 54.885 44.2596 33.3884 59.2597 47.6508C74.2599 61.9131 80.9486 49.0668 84.9373 63.3165C90.3845 82.7698 75.0219 112.885 37.3939 112.885C37.3939 112.885 61.8999 163.397 123.329 110.078Z" fill="#0048D3"/>
<path d="M69.6829 109.378C75.4698 105.83 80.7728 99.6132 83.5057 96.0965C84.2692 95.1141 86.0687 95.3968 86.6224 96.5114C87.9553 99.1971 90.6497 103.172 95.8157 106.338C101.073 109.562 106.439 109.949 110.8 109.372C112.437 109.155 114.131 111.984 112.847 113.021C105.815 118.698 94.3829 126.402 81.1239 129.486C58.242 134.808 44.0039 116.393 44.0039 116.393C44.0039 116.393 55.3107 118.19 69.6829 109.378Z" fill="#00DDFF"/>
</svg>
