<svg width="87" height="86" viewBox="0 0 87 86" fill="none" xmlns="http://www.w3.org/2000/svg">
<path d="M43.4993 78.8333C63.2895 78.8333 79.3327 62.7902 79.3327 43C79.3327 23.2098 63.2895 7.16663 43.4993 7.16663C23.7091 7.16663 7.66602 23.2098 7.66602 43C7.66602 62.7902 23.7091 78.8333 43.4993 78.8333Z" stroke="white" stroke-width="6" stroke-linecap="round"/>
<path d="M28.7402 56.4586C30.5056 57.9876 32.8319 59.0924 35.3386 59.8158C37.8736 60.5476 40.6833 60.9166 43.4991 60.9166C46.3149 60.9166 49.1246 60.5476 51.6598 59.8158C54.1664 59.0924 56.4926 57.9876 58.2582 56.4586" stroke="white" stroke-width="6" stroke-linecap="round"/>
<path d="M32.7507 40.3125C35.2244 40.3125 37.2298 38.3071 37.2298 35.8333C37.2298 33.3595 35.2244 31.3541 32.7507 31.3541C30.2769 31.3541 28.2715 33.3595 28.2715 35.8333C28.2715 38.3071 30.2769 40.3125 32.7507 40.3125Z" fill="white" stroke="white" stroke-width="6" stroke-linecap="round"/>
<path d="M54.2507 40.3125C56.7244 40.3125 58.7298 38.3071 58.7298 35.8333C58.7298 33.3595 56.7244 31.3541 54.2507 31.3541C51.7769 31.3541 49.7715 33.3595 49.7715 35.8333C49.7715 38.3071 51.7769 40.3125 54.2507 40.3125Z" fill="white" stroke="white" stroke-width="6" stroke-linecap="round"/>
</svg>
