<svg width="59" height="59" viewBox="0 0 59 59" fill="none" xmlns="http://www.w3.org/2000/svg">
<g clip-path="url(#clip0_175_844)">
<path d="M54.3772 20.8825C51.0558 8.53765 40.9703 0 29.5 0C18.0644 0 7.94071 8.55153 4.62282 20.8825C2.03029 21.1671 0 23.3536 0 26.0294V39.9118C0 42.0809 1.32576 43.9376 3.20682 44.7185C3.88012 50.7816 8.97841 55.5294 15.2185 55.5294H24.6134C25.3318 57.5458 27.2406 59 29.5 59H39.9118C42.7819 59 45.1176 56.6643 45.1176 53.7941C45.1176 50.9239 42.7819 48.5882 39.9118 48.5882H29.5C27.2406 48.5882 25.3318 50.0424 24.6134 52.0588H15.2185C11.0261 52.0588 7.52424 49.0741 6.71906 45.1176H10.4118V41.6471H13.8824V24.2941H10.4118V20.8235H8.30859C11.4772 10.5471 19.942 3.47059 29.5 3.47059C39.0858 3.47059 47.5228 10.5402 50.6914 20.8235H48.5882V24.2941H45.1176V41.6471H48.5882V45.1176H53.8149C56.6747 45.1176 59 42.7819 59 39.9118V26.0294C59 23.3536 56.9697 21.1671 54.3772 20.8825ZM29.5 52.0588H39.9118C40.8662 52.0588 41.6471 52.8362 41.6471 53.7941C41.6471 54.752 40.8662 55.5294 39.9118 55.5294H29.5C28.5456 55.5294 27.7647 54.752 27.7647 53.7941C27.7647 52.8362 28.5456 52.0588 29.5 52.0588ZM6.94118 41.6471H5.18506C4.24106 41.6471 3.47059 40.8696 3.47059 39.9118V26.0294C3.47059 25.0715 4.24106 24.2941 5.18506 24.2941H6.94118V41.6471ZM55.5294 39.9118C55.5294 40.8696 54.7589 41.6471 53.8149 41.6471H52.0588V24.2941H53.8149C54.7589 24.2941 55.5294 25.0715 55.5294 26.0294V39.9118Z" fill="#4678FF"/>
</g>
<defs>
<clipPath id="clip0_175_844">
<rect width="59" height="59" fill="white"/>
</clipPath>
</defs>
</svg>
