<svg width="66" height="66" viewBox="0 0 66 66" fill="none" xmlns="http://www.w3.org/2000/svg">
<path d="M51.9746 25.1419L60.1215 23.8632" stroke="#4678FF" stroke-width="3" stroke-linecap="round"/>
<path d="M49.4277 17.6447L54.5221 14.6438" stroke="#4678FF" stroke-width="3" stroke-linecap="round"/>
<path d="M44.2305 12.0965L47.6542 4.65088" stroke="#4678FF" stroke-width="3" stroke-linecap="round"/>
<path d="M34.4944 11.0241L34.4531 5.11499" stroke="#4678FF" stroke-width="3" stroke-linecap="round"/>
<path d="M25.0484 12.4678L22.2949 4.65088" stroke="#4678FF" stroke-width="3" stroke-linecap="round"/>
<path d="M18.5524 17.5622L13.3652 14.7366" stroke="#4678FF" stroke-width="3" stroke-linecap="round"/>
<path d="M16.2734 24.7191L8.28125 23.3682" stroke="#4678FF" stroke-width="3" stroke-linecap="round"/>
<path d="M27.0398 46.891C27.0398 41.5697 23.7501 37.1044 21.9763 33.8044C20.9909 31.972 20.4737 29.9244 20.4707 27.8438C20.4707 20.8416 26.8748 15.1594 33.8769 15.1594" stroke="#4678FF" stroke-width="3"/>
<path d="M40.7141 46.891C40.7141 41.5697 44.0038 37.1044 45.7776 33.8044C46.763 31.972 47.2803 29.9244 47.2832 27.8438C47.2832 20.8416 40.8791 15.1594 33.877 15.1594" stroke="#4678FF" stroke-width="3"/>
<path d="M41.7045 46.6022H26.5554C25.348 46.6022 24.3691 47.581 24.3691 48.7884V48.7987C24.3691 50.0062 25.348 50.985 26.5554 50.985H41.7045C42.9119 50.985 43.8907 50.0062 43.8907 48.7987V48.7884C43.8907 47.581 42.9119 46.6022 41.7045 46.6022Z" stroke="#4678FF" stroke-width="3"/>
<path d="M40.5073 50.9747H27.7507C26.5433 50.9747 25.5645 51.9535 25.5645 53.161V53.1713C25.5645 54.3787 26.5433 55.3575 27.7507 55.3575H40.5073C41.7147 55.3575 42.6935 54.3787 42.6935 53.1713V53.161C42.6935 51.9535 41.7147 50.9747 40.5073 50.9747Z" stroke="#4678FF" stroke-width="3"/>
<path d="M37.4543 55.3575V56.2238C37.4904 56.6819 37.4314 57.1425 37.2809 57.5766C37.1304 58.0108 36.8917 58.4091 36.5798 58.7465C36.268 59.084 35.8896 59.3532 35.4687 59.5374C35.0477 59.7216 34.5932 59.8166 34.1337 59.8166C33.6742 59.8166 33.2197 59.7216 32.7987 59.5374C32.3777 59.3532 31.9994 59.084 31.6875 58.7465C31.3756 58.4091 31.1369 58.0108 30.9864 57.5766C30.836 57.1425 30.7769 56.6819 30.813 56.2238V55.3575" stroke="#4678FF" stroke-width="3"/>
<path d="M25.3379 27.0703C25.3894 26.0551 25.6405 25.0599 26.0769 24.1418C26.5133 23.2237 27.1263 22.4006 27.8811 21.7196C28.6358 21.0387 29.5174 20.5131 30.4754 20.1731C31.4334 19.8331 32.449 19.6853 33.4641 19.7381" stroke="#4678FF" stroke-width="3" stroke-linecap="round"/>
</svg>
