<svg width="87" height="86" viewBox="0 0 87 86" fill="none" xmlns="http://www.w3.org/2000/svg">
<path d="M50.6667 14.3334C50.6667 18.2914 47.4582 21.5 43.5 21.5C39.5419 21.5 36.3333 18.2914 36.3333 14.3334C36.3333 10.3753 39.5419 7.16669 43.5 7.16669C47.4582 7.16669 50.6667 10.3753 50.6667 14.3334Z" stroke="white" stroke-width="6"/>
<path d="M43.5 53.7489L45.8335 52.4156C45.3551 51.5785 44.4643 51.0614 43.5 51.0614C42.5357 51.0614 41.6449 51.5785 41.1665 52.4156L43.5 53.7489ZM21.3214 41.4251L29.1162 44.0234L30.8159 38.9243L23.0211 36.3261L21.3214 41.4251ZM30.3019 46.5361L25.8342 58.1518L30.851 60.0814L35.3186 48.4653L30.3019 46.5361ZM63.9787 36.3261L56.1839 38.9243L57.8838 44.0234L65.6787 41.4251L63.9787 36.3261ZM51.6815 48.4653L56.1492 60.0814L61.1658 58.1518L56.6981 46.5361L51.6815 48.4653ZM40.1868 64.9641L45.8335 55.0823L41.1665 52.4156L35.5199 62.2973L40.1868 64.9641ZM61.3787 25.6694L54.5789 27.1265L55.7052 32.3822L62.5049 30.9251L61.3787 25.6694ZM32.4209 27.1265L25.6213 25.6694L24.4951 30.9251L31.2947 32.3822L32.4209 27.1265ZM41.1665 55.0823L46.8131 64.9641L51.4801 62.2973L45.8335 52.4156L41.1665 55.0823ZM54.5789 27.1265C54.1973 27.2083 54.0192 27.2465 53.8433 27.2828L54.9319 32.5464C55.1308 32.5053 55.3307 32.4624 55.7052 32.3822L54.5789 27.1265ZM31.2947 32.3822C31.6693 32.4624 31.8691 32.5053 32.068 32.5464L33.1568 27.2828C32.9809 27.2465 32.8026 27.2083 32.4209 27.1265L31.2947 32.3822ZM53.8433 27.2828C47.0199 28.6942 39.9801 28.6942 33.1568 27.2828L32.068 32.5464C39.6096 34.1064 47.3904 34.1064 54.9319 32.5464L53.8433 27.2828ZM33.2698 68.9781C36.1286 68.9781 38.7682 67.4462 40.1868 64.9641L35.5199 62.2973C35.0584 63.105 34.1998 63.6031 33.2698 63.6031V68.9781ZM56.1492 60.0814C56.802 61.7788 55.549 63.6031 53.73 63.6031V68.9781C59.3211 68.9781 63.1729 63.3698 61.1658 58.1518L56.1492 60.0814ZM56.1839 38.9243C55.3888 39.1895 54.5424 39.4525 53.8551 39.8764L56.6784 44.4506C56.6465 44.4699 56.6734 44.4466 56.8809 44.3681C57.0987 44.2857 57.3926 44.1872 57.8838 44.0234L56.1839 38.9243ZM56.6981 46.5361C56.5121 46.0527 56.4014 45.7631 56.3265 45.5424C56.2552 45.3328 56.2563 45.2973 56.2613 45.3342L50.9358 46.0623C51.0454 46.8625 51.3805 47.6831 51.6815 48.4653L56.6981 46.5361ZM53.8551 39.8764C51.7442 41.1797 50.6 43.6045 50.9358 46.0623L56.2613 45.3342C56.2133 44.983 56.3767 44.6365 56.6784 44.4506L53.8551 39.8764ZM65.8958 33.6664C65.8958 34.8731 65.1236 35.9444 63.9787 36.3261L65.6787 41.4251C69.0183 40.3122 71.2708 37.1868 71.2708 33.6664H65.8958ZM25.8342 58.1518C23.8273 63.3698 27.679 68.9781 33.2698 68.9781V63.6031C31.4511 63.6031 30.1981 61.7788 30.851 60.0814L25.8342 58.1518ZM29.1162 44.0234C29.6074 44.1872 29.9013 44.2857 30.1192 44.3681C30.3266 44.4466 30.3533 44.4699 30.3216 44.4506L33.1449 39.8764C32.4577 39.4525 31.6112 39.1895 30.8159 38.9243L29.1162 44.0234ZM35.3186 48.4653C35.6196 47.6831 35.9546 46.8625 36.064 46.0623L30.7386 45.3342C30.7436 45.2973 30.7448 45.3324 30.6735 45.5424C30.5986 45.7631 30.4878 46.0527 30.3019 46.5361L35.3186 48.4653ZM30.3216 44.4506C30.6231 44.6365 30.7866 44.983 30.7386 45.3342L36.064 46.0623C36.4 43.6045 35.2558 41.1797 33.1449 39.8764L30.3216 44.4506ZM15.7292 33.6664C15.7292 37.1868 17.9817 40.3122 21.3214 41.4251L23.0211 36.3261C21.8763 35.9444 21.1042 34.8731 21.1042 33.6664H15.7292ZM21.1042 33.6664C21.1042 31.8815 22.7499 30.5511 24.4951 30.9251L25.6213 25.6694C20.5301 24.5785 15.7292 28.4596 15.7292 33.6664H21.1042ZM46.8131 64.9641C48.2318 67.4462 50.8713 68.9781 53.73 68.9781V63.6031C52.8002 63.6031 51.9416 63.105 51.4801 62.2973L46.8131 64.9641ZM71.2708 33.6664C71.2708 28.4596 66.4699 24.5784 61.3787 25.6694L62.5049 30.9251C64.25 30.5511 65.8958 31.8815 65.8958 33.6664H71.2708Z" fill="white"/>
<path d="M70.2091 51.9584C75.8833 54.8111 79.3333 58.5786 79.3333 62.7084C79.3333 71.614 63.29 78.8334 43.5 78.8334C23.7098 78.8334 7.66666 71.614 7.66666 62.7084C7.66666 58.5786 11.1169 54.8111 16.7909 51.9584" stroke="white" stroke-width="6" stroke-linecap="round"/>
</svg>
