<svg width="87" height="86" viewBox="0 0 87 86" fill="none" xmlns="http://www.w3.org/2000/svg">
<path d="M50.6673 14.3333C50.6673 18.2913 47.4588 21.5 43.5007 21.5C39.5425 21.5 36.334 18.2913 36.334 14.3333C36.334 10.3752 39.5425 7.16663 43.5007 7.16663C47.4588 7.16663 50.6673 10.3752 50.6673 14.3333Z" stroke="white" stroke-width="6"/>
<path d="M43.4993 53.7489L45.8328 52.4156C45.3544 51.5785 44.4636 51.0614 43.4993 51.0614C42.5351 51.0614 41.6443 51.5785 41.1659 52.4156L43.4993 53.7489ZM21.3207 41.4251L29.1156 44.0234L30.8153 38.9243L23.0205 36.3261L21.3207 41.4251ZM30.3012 46.5361L25.8336 58.1518L30.8503 60.0814L35.318 48.4653L30.3012 46.5361ZM63.9781 36.3261L56.1833 38.9243L57.8832 44.0234L65.678 41.4251L63.9781 36.3261ZM51.6808 48.4653L56.1485 60.0814L61.1652 58.1518L56.6975 46.5361L51.6808 48.4653ZM40.1862 64.9641L45.8328 55.0823L41.1659 52.4156L35.5192 62.2973L40.1862 64.9641ZM61.378 25.6694L54.5783 27.1265L55.7045 32.3822L62.5043 30.9251L61.378 25.6694ZM32.4203 27.1265L25.6207 25.6694L24.4945 30.9251L31.2941 32.3822L32.4203 27.1265ZM41.1659 55.0823L46.8125 64.9641L51.4794 62.2973L45.8328 52.4156L41.1659 55.0823ZM54.5783 27.1265C54.1967 27.2083 54.0186 27.2465 53.8426 27.2828L54.9313 32.5464C55.1301 32.5053 55.3301 32.4624 55.7045 32.3822L54.5783 27.1265ZM31.2941 32.3822C31.6686 32.4624 31.8684 32.5053 32.0674 32.5464L33.1562 27.2828C32.9802 27.2465 32.802 27.2083 32.4203 27.1265L31.2941 32.3822ZM53.8426 27.2828C47.0193 28.6942 39.9794 28.6942 33.1562 27.2828L32.0674 32.5464C39.6089 34.1064 47.3898 34.1064 54.9313 32.5464L53.8426 27.2828ZM33.2691 68.9781C36.128 68.9781 38.7676 67.4462 40.1862 64.9641L35.5192 62.2973C35.0578 63.105 34.1991 63.6031 33.2691 63.6031V68.9781ZM56.1485 60.0814C56.8014 61.7788 55.5483 63.6031 53.7294 63.6031V68.9781C59.3205 68.9781 63.1722 63.3698 61.1652 58.1518L56.1485 60.0814ZM56.1833 38.9243C55.3881 39.1895 54.5417 39.4525 53.8545 39.8764L56.6778 44.4506C56.6459 44.4699 56.6728 44.4466 56.8802 44.3681C57.0981 44.2857 57.3919 44.1872 57.8832 44.0234L56.1833 38.9243ZM56.6975 46.5361C56.5115 46.0527 56.4008 45.7631 56.3259 45.5424C56.2546 45.3328 56.2557 45.2973 56.2607 45.3342L50.9351 46.0623C51.0448 46.8625 51.3798 47.6831 51.6808 48.4653L56.6975 46.5361ZM53.8545 39.8764C51.7435 41.1797 50.5994 43.6045 50.9351 46.0623L56.2607 45.3342C56.2127 44.983 56.3761 44.6365 56.6778 44.4506L53.8545 39.8764ZM65.8952 33.6664C65.8952 34.8731 65.123 35.9444 63.9781 36.3261L65.678 41.4251C69.0177 40.3122 71.2702 37.1868 71.2702 33.6664H65.8952ZM25.8336 58.1518C23.8266 63.3698 27.6784 68.9781 33.2691 68.9781V63.6031C31.4504 63.6031 30.1974 61.7788 30.8503 60.0814L25.8336 58.1518ZM29.1156 44.0234C29.6068 44.1872 29.9006 44.2857 30.1186 44.3681C30.326 44.4466 30.3526 44.4699 30.3209 44.4506L33.1442 39.8764C32.457 39.4525 31.6105 39.1895 30.8153 38.9243L29.1156 44.0234ZM35.318 48.4653C35.6189 47.6831 35.954 46.8625 36.0634 46.0623L30.738 45.3342C30.743 45.2973 30.7441 45.3324 30.6728 45.5424C30.5979 45.7631 30.4872 46.0527 30.3012 46.5361L35.318 48.4653ZM30.3209 44.4506C30.6225 44.6365 30.786 44.983 30.738 45.3342L36.0634 46.0623C36.3993 43.6045 35.2551 41.1797 33.1442 39.8764L30.3209 44.4506ZM15.7285 33.6664C15.7285 37.1868 17.9811 40.3122 21.3207 41.4251L23.0205 36.3261C21.8757 35.9444 21.1035 34.8731 21.1035 33.6664H15.7285ZM21.1035 33.6664C21.1035 31.8815 22.7492 30.5511 24.4945 30.9251L25.6207 25.6694C20.5294 24.5785 15.7285 28.4596 15.7285 33.6664H21.1035ZM46.8125 64.9641C48.2311 67.4462 50.8706 68.9781 53.7294 68.9781V63.6031C52.7995 63.6031 51.941 63.105 51.4794 62.2973L46.8125 64.9641ZM71.2702 33.6664C71.2702 28.4596 66.4692 24.5784 61.378 25.6694L62.5043 30.9251C64.2494 30.5511 65.8952 31.8815 65.8952 33.6664H71.2702Z" fill="white"/>
<path d="M70.2084 51.9584C75.8826 54.8111 79.3327 58.5786 79.3327 62.7084C79.3327 71.614 63.2894 78.8334 43.4993 78.8334C23.7091 78.8334 7.66602 71.614 7.66602 62.7084C7.66602 58.5786 11.1162 54.8111 16.7903 51.9584" stroke="white" stroke-width="6" stroke-linecap="round"/>
</svg>
