<svg width="87" height="86" viewBox="0 0 87 86" fill="none" xmlns="http://www.w3.org/2000/svg">
<path d="M63.1437 20.8802C63.012 20.7708 62.8686 20.6736 62.7147 20.5908C59.8911 18.7013 56.7847 17.2158 53.4746 16.2149C53.4774 16.1206 53.4798 16.0267 53.4796 15.9349C53.472 11.626 51.7799 7.60126 48.715 4.60234C45.6815 1.63366 41.6435 0 37.3417 0C37.3316 0 37.3214 0 37.3113 0C33.0002 0.00772656 28.95 1.69346 25.907 4.7468C22.8639 7.8003 21.1921 11.8559 21.1999 16.1667C21.2027 17.7261 21.6349 19.6171 22.5042 21.8615C15.5057 27.2022 10.5308 35.1406 8.97343 44.2559C8.97343 44.2562 8.97326 44.2567 8.97326 44.2571C8.63397 46.2441 8.45508 48.2866 8.45508 50.371C8.45491 70.0168 24.1759 86 43.4996 86C49.064 86 54.3282 84.6725 59.0058 82.3161C59.1477 82.2595 59.2829 82.1901 59.4118 82.1107C70.7591 76.2067 78.5442 64.196 78.5442 50.371C78.5442 38.1207 72.431 27.2951 63.1437 20.8802ZM63.017 27.4629C65.8695 29.9923 68.2462 33.0652 69.9914 36.5219L63.3395 35.1416L61.5582 33.1653L63.017 27.4629ZM29.6398 8.4668C31.6892 6.41036 34.417 5.27489 37.3207 5.26985C37.3277 5.26985 37.3345 5.26985 37.3413 5.26985C40.2569 5.26985 42.9869 6.37005 45.0296 8.36904C47.0753 10.3709 48.2049 13.0611 48.2099 15.9444C48.2173 20.1013 42.2193 29.8963 37.3662 36.7126C32.4944 29.9836 26.4769 20.3104 26.4696 16.1576C26.4647 13.2544 27.5904 10.5232 29.6398 8.4668ZM24.0621 73.3501C18.0241 68.0327 14.0977 60.2885 13.752 51.6193L18.7922 58.0634C19.0843 58.4368 19.4716 58.7246 19.9134 58.8962L25.8506 61.2026L24.0621 73.3501ZM55.4821 78.1604C51.8139 79.811 47.7606 80.7301 43.5001 80.7301C38.1896 80.7301 33.2006 79.3039 28.8794 76.8098L31.3706 59.8914C31.5498 58.6752 30.864 57.4967 29.7179 57.0516L22.4971 54.2465L14.4074 43.9037C15.8734 37.0418 19.621 31.04 24.7971 26.7677C25.7876 28.6251 26.984 30.6538 28.3928 32.8641C29.7414 34.98 31.0803 36.9382 32.2163 38.5458C30.974 38.7581 30.0273 39.8373 30.0273 41.1401C30.0273 42.5952 31.2069 43.775 32.6622 43.775H37.3847C37.3884 43.775 37.3921 43.775 37.3958 43.775H42.0179C43.473 43.775 44.6528 42.5954 44.6528 41.1401C44.6528 39.8499 43.7248 38.7781 42.5003 38.5513C43.6405 36.9123 44.992 34.9054 46.352 32.7366C49.1885 28.2139 51.1626 24.4458 52.3026 21.3666C54.4614 22.0493 56.5153 22.9768 58.434 24.1158L56.1029 33.2272C55.8842 34.0819 56.1076 34.9891 56.6984 35.6443L60.0025 39.3104C60.3777 39.7268 60.8758 40.0125 61.4244 40.1264L71.9382 42.3081C72.0316 42.3275 72.125 42.3412 72.2177 42.3505C72.4008 43.0311 72.5617 43.7209 72.6984 44.4195L64.7673 42.0522C64.302 41.9132 63.8075 41.9058 63.3379 42.0301L51.5713 45.1517C50.7479 45.37 50.0811 45.973 49.7809 46.7702L46.0376 56.7155C45.8437 57.2301 45.816 57.7927 45.958 58.324L48.2993 67.0847C48.5657 68.0816 49.3896 68.8311 50.407 69.0026L55.9037 69.9286L55.4821 78.1604ZM60.922 74.9747L61.2871 67.855C61.3557 66.5193 60.4125 65.3439 59.0935 65.1217L52.9532 64.087L51.2676 57.7799L54.235 49.8968L63.9716 47.3139L73.271 50.0898C73.2719 50.1835 73.2746 50.2771 73.2746 50.371C73.2744 60.4829 68.3998 69.4542 60.922 74.9747Z" fill="white"/>
<path d="M37.3374 20.2063C39.2593 20.2063 40.8174 18.6483 40.8174 16.7263C40.8174 14.8044 39.2593 13.2463 37.3374 13.2463C35.4155 13.2463 33.8574 14.8044 33.8574 16.7263C33.8574 18.6483 35.4155 20.2063 37.3374 20.2063Z" fill="white"/>
</svg>
