<svg width="189" height="62" viewBox="0 0 189 62" fill="none" xmlns="http://www.w3.org/2000/svg">
<path fill-rule="evenodd" clip-rule="evenodd" d="M160.607 41.179L160.586 48.5413V52.7666H160.575L160.573 53.6418L160.562 57.8309L160.586 57.8497L165.749 61.8967L165.745 41.1602L160.607 41.179Z" fill="black"/>
<path fill-rule="evenodd" clip-rule="evenodd" d="M115.606 59.0187L116.903 60.1692V7.08961L115.606 6.59695V59.0187ZM177.853 41.0468V52.8561L177.854 58.0088H177.86L183.04 52.8561V41.0323L177.854 35.9753L177.853 41.0468ZM165.318 41.1599L165.321 42.0235V41.1599H165.318ZM132.897 12.3161L132.916 17.8296L156.573 7.42868L160.13 5.88694L153.819 3.13965L132.897 12.3161Z" fill="black"/>
<path fill-rule="evenodd" clip-rule="evenodd" d="M165.318 41.1602V41.1703L168.343 41.1746V41.1602H165.318Z" fill="black"/>
<path fill-rule="evenodd" clip-rule="evenodd" d="M165.318 41.1602V41.1875H165.321V41.2378H165.324V41.1602H165.318Z" fill="black"/>
<path fill-rule="evenodd" clip-rule="evenodd" d="M178.275 35.9812L178.269 35.9754H165.605L160.562 41.1454V41.1599H160.611L178.284 41.1353V41.1382L178.285 35.9914L178.275 35.9812ZM160.538 57.99L160.549 53.7879L160.525 53.7633V52.9084H160.502V57.9683H137.977V52.9084H137.958L137.983 15.6692L132.897 18.1832L132.92 52.9171L137.934 58.0089H160.562L160.538 57.99Z" fill="black"/>
<path fill-rule="evenodd" clip-rule="evenodd" d="M160.563 52.8246H160.58V48.5037L160.563 52.8246Z" fill="black"/>
<path fill-rule="evenodd" clip-rule="evenodd" d="M165.37 41.1602L165.317 58.0091H165.431V52.8767H165.378V41.8513L165.373 41.1602H165.37Z" fill="black"/>
<path fill-rule="evenodd" clip-rule="evenodd" d="M160.563 52.8245V53.6649L160.602 53.6881L160.607 52.8245H160.563Z" fill="black"/>
<path fill-rule="evenodd" clip-rule="evenodd" d="M165.318 52.8245V58.009H165.373L165.339 52.8245H165.318Z" fill="black"/>
<path fill-rule="evenodd" clip-rule="evenodd" d="M165.318 41.2108H165.321V41.1602H165.317L165.318 41.2108Z" fill="black"/>
<path fill-rule="evenodd" clip-rule="evenodd" d="M153.646 3.38904L153.655 3.39773L154.504 2.73119L154.51 2.70801L153.646 3.38904Z" fill="black"/>
<path fill-rule="evenodd" clip-rule="evenodd" d="M166.181 3.153L166.214 3.13965L166.181 3.15448V3.153Z" fill="black"/>
<path fill-rule="evenodd" clip-rule="evenodd" d="M154.561 2.90947L154.555 2.92396L153.646 3.32243L159.98 6.08857L183.013 16.1011L188.228 12.9959V12.9554L183.045 10.6862L166.279 3.34852L166.3 3.33982L159.94 0.554852L159.929 0.55775L159.905 0.547607L154.561 2.90947Z" fill="black"/>
<path fill-rule="evenodd" clip-rule="evenodd" d="M183.04 16.0315L160.132 6.16382L160.13 6.16527L183.072 16.0894V23.0142H188.228V12.9712L183.04 16.0315Z" fill="black"/>
<path fill-rule="evenodd" clip-rule="evenodd" d="M98.1721 36.3335C98.1721 33.8195 98.2663 31.4475 98.146 29.0885C98.0329 26.902 96.7484 25.4805 94.5969 25.2298C92.9326 25.0342 91.2277 25.1907 89.543 25.1907V36.3335H98.1721ZM70.9628 22.7463H73.6448V36.3147H86.8479V22.6941C90.2737 22.8317 93.6053 22.1956 96.847 23.1969C99.0912 23.8895 100.466 25.6544 100.609 27.8902C100.841 31.4794 100.671 35.0946 100.671 38.8258H42.2979C37.5064 38.8258 36.2364 37.5695 36.2175 32.7501C36.1972 27.1686 36.2132 21.5871 36.2132 16.0055V14.926H38.8836V16.2316C38.8836 21.9392 38.8778 27.6453 38.8851 33.3515C38.888 35.7974 39.465 36.3784 41.889 36.39C43.923 36.4016 51.7141 36.3929 53.8772 36.3929V23.9141H56.4679V36.3089H62.4236V23.9055H65.1202V36.3248H70.9628V22.7463Z" fill="black"/>
<mask id="mask0_704_347" style="mask-type:luminance" maskUnits="userSpaceOnUse" x="0" y="22" width="32" height="17">
<path d="M0.189209 22.7842H31.0056V38.7492H0.189209V22.7842Z" fill="white"/>
</mask>
<g mask="url(#mask0_704_347)">
<path fill-rule="evenodd" clip-rule="evenodd" d="M14.6724 36.354H28.3742V22.7842H31.0056V38.7492H0.189209V36.4424H12.2281C12.0701 33.4647 12.0976 30.6059 11.7077 27.8035C11.4612 26.0198 9.84614 25.1779 7.5613 25.1142C5.9854 25.0707 4.4095 25.1055 2.75821 25.1055V22.9044C5.19817 22.9044 7.63234 22.6567 9.99257 22.9697C12.8457 23.3464 14.4796 25.5489 14.6202 28.6439C14.7159 30.7218 14.6608 32.8083 14.671 34.8891C14.6739 35.3383 14.671 35.7875 14.671 36.3526" fill="#969696"/>
</g>
<path fill-rule="evenodd" clip-rule="evenodd" d="M28.5642 17.6849C28.3974 17.6849 28.3757 17.7095 28.3757 17.8733V20.2815C28.3757 20.4467 28.3974 20.4699 28.5642 20.4699H30.807C30.9722 20.4699 30.9954 20.4467 30.9954 20.2815V17.8747C30.9954 17.7095 30.9722 17.6864 30.807 17.6864H28.5642V17.6849ZM15.1001 43.0757V57.2831H13.4155V45.1738L13.2749 45.1347C13.1647 45.3767 13.0385 45.6129 12.9458 45.8635C11.6149 49.4353 10.2767 53.0056 8.97484 56.589C8.76607 57.1657 8.49351 57.4468 7.86866 57.3425C7.64781 57.3066 7.42261 57.3066 7.20176 57.3425C6.70884 57.4222 6.52037 57.1773 6.3609 56.7484C5.00101 53.0535 3.61648 49.3687 2.23919 45.6824C2.17581 45.4762 2.06281 45.2886 1.91009 45.1361V57.2874H0.268951V43.1162H3.03802L7.64829 55.4892C7.85126 54.9777 8.00639 54.6097 8.14557 54.2344C9.45036 50.7307 10.761 47.2299 12.0455 43.719C12.2281 43.2148 12.4847 43.0264 13.0168 43.0641C13.6822 43.1104 14.3506 43.0757 15.1001 43.0757ZM60.2156 43.0771C60.8245 43.0771 61.4001 43.025 61.9553 43.1018C62.1873 43.1336 62.4395 43.4017 62.586 43.6234C64.8621 47.0821 67.1238 50.551 69.3897 54.017C69.5362 54.2416 69.6884 54.4648 69.9755 54.6691V43.1133H71.5891V57.3338C70.999 57.3338 70.4075 57.3787 69.829 57.3092C69.6261 57.2845 69.41 57.0107 69.2738 56.802C66.9759 53.2983 64.6896 49.7874 62.4018 46.278C62.2554 46.0563 62.0974 45.8404 61.8219 45.4404V57.2976H60.2156V43.0771ZM90.381 44.5421V55.8138C91.7061 55.8138 92.9732 55.8718 94.233 55.8022C96.8354 55.6573 98.2823 54.6213 98.5751 52.4753C98.7737 51.0234 98.752 49.5092 98.594 48.0486C98.4156 46.3866 97.4327 45.126 95.7263 44.8681C93.9808 44.6044 92.1889 44.6391 90.381 44.5421ZM88.6906 43.2119C91.0928 43.2119 93.4603 43.0394 95.7945 43.2582C98.3417 43.4973 99.8466 45.0941 100.387 47.6487C100.751 49.3551 100.744 51.1194 100.368 52.8231C99.7581 55.6211 97.9836 57.1208 94.9231 57.2903C92.8703 57.4033 90.8058 57.3121 88.6906 57.3121V43.2119ZM19.0725 43.109H20.7687V43.9378C20.7687 46.546 20.7542 49.1528 20.7716 51.7595C20.7934 54.8024 21.8155 55.808 24.8614 55.8268C25.9749 55.8326 27.0868 55.8268 28.2916 55.8268V43.1191H30.0183V57.2295C29.9965 57.2498 29.9603 57.3121 29.924 57.3121C27.7871 57.315 25.6472 57.4091 23.5161 57.2874C20.7861 57.1309 19.2494 55.7138 19.1116 52.9897C18.9464 49.7251 19.0725 46.4446 19.0725 43.1104M51.4778 44.8695L51.3053 44.8666L48.6624 52.016H54.1179L51.4778 44.8695ZM44.8596 57.3367L50.3789 43.1235C50.4804 43.1032 50.5268 43.0858 50.5761 43.0844C52.4289 43.0032 52.4318 43.0032 53.0929 44.7058C54.6238 48.6471 56.1519 52.5898 57.6814 56.5325C57.7698 56.76 57.8481 56.9918 57.9713 57.3352C57.3972 57.3352 56.8869 57.3729 56.3896 57.3135C56.2171 57.2932 56.0055 57.057 55.9301 56.8701C55.5728 55.9746 55.2382 55.0701 54.9268 54.1576C54.7876 53.7533 54.5905 53.5751 54.128 53.5838C52.3158 53.6128 50.5036 53.607 48.6943 53.5881C48.2666 53.5823 48.0288 53.6751 47.8867 54.1301C47.6243 54.9777 47.2314 55.7877 46.9734 56.6368C46.8095 57.1787 46.5645 57.4207 45.9904 57.3454C45.6541 57.299 45.3061 57.3367 44.8596 57.3367ZM43.0155 43.1409V44.629C41.9224 44.629 40.8611 44.6232 39.7999 44.629C38.8807 44.6348 37.9601 44.6058 37.0453 44.6754C35.813 44.7681 35.136 45.6346 35.149 46.988C35.1606 48.3616 35.8275 49.2035 37.0569 49.2962C37.8963 49.36 38.743 49.3252 39.5868 49.3455C43.0445 49.4281 43.9013 51.5914 43.5664 54.2069C43.3286 56.0645 42.3211 57.115 40.3755 57.2512C38.1602 57.4077 35.9247 57.2889 33.663 57.2889V55.8268H34.4401C36.0537 55.8268 37.6687 55.8471 39.2823 55.8196C41.1018 55.7877 41.9137 54.9009 41.8238 53.1056C41.7542 51.7262 41.0119 50.9727 39.6172 50.9147C38.7996 50.8785 37.979 50.9104 37.1599 50.88C34.1371 50.764 33.0947 48.9122 33.4049 46.2693C33.6369 44.2928 34.6735 43.2698 36.6684 43.1641C38.7662 43.0525 40.8727 43.1394 43.014 43.1394M86.2984 55.4646H76.9402V51.2393H85.4576V49.2919H76.9547V44.9854H85.4532V43.1887H75.1323V57.3715H86.2999L86.2984 55.4646ZM98.1721 36.3335C98.1721 33.8195 98.2663 31.4475 98.146 29.0885C98.0329 26.902 96.7484 25.4805 94.597 25.2298C92.9326 25.0342 91.2277 25.1907 89.543 25.1907V36.3335H98.1721ZM70.9628 22.7463H73.6448V36.3147H86.8479V22.6941C90.2737 22.8317 93.6053 22.1956 96.847 23.1969C99.0912 23.8895 100.466 25.6544 100.609 27.8902C100.841 31.4794 100.671 35.0946 100.671 38.8258H42.2979C37.5064 38.8258 36.2364 37.5695 36.2175 32.7501C36.1972 27.1686 36.2132 21.5871 36.2132 16.0055V14.926H38.8836V16.2316C38.8836 21.9392 38.8778 27.6453 38.8851 33.3515C38.888 35.7974 39.465 36.3784 41.889 36.39C43.923 36.4016 51.7141 36.3929 53.8772 36.3929V23.9141H56.4679V36.3089H62.4236V23.9055H65.1202V36.3248H70.9628V22.7463Z" fill="black"/>
<mask id="mask1_704_347" style="mask-type:luminance" maskUnits="userSpaceOnUse" x="0" y="22" width="32" height="17">
<path d="M0.189209 22.7842H31.0056V38.7492H0.189209V22.7842Z" fill="white"/>
</mask>
<g mask="url(#mask1_704_347)">
<path fill-rule="evenodd" clip-rule="evenodd" d="M14.6724 36.354H28.3742V22.7842H31.0056V38.7492H0.189209V36.4424H12.2281C12.0701 33.4647 12.0976 30.6059 11.7077 27.8035C11.4612 26.0198 9.84614 25.1779 7.5613 25.1142C5.9854 25.0707 4.4095 25.1055 2.75821 25.1055V22.9044C5.19817 22.9044 7.63234 22.6567 9.99257 22.9697C12.8457 23.3464 14.4796 25.5489 14.6202 28.6439C14.7159 30.7218 14.6608 32.8083 14.671 34.8891C14.6739 35.3383 14.671 35.7875 14.671 36.3526" fill="black"/>
</g>
<path fill-rule="evenodd" clip-rule="evenodd" d="M28.5642 17.6848C28.3974 17.6848 28.3757 17.7094 28.3757 17.8732V20.2814C28.3757 20.4466 28.3974 20.4698 28.5642 20.4698H30.807C30.9722 20.4698 30.9954 20.4466 30.9954 20.2814V17.8746C30.9954 17.7094 30.9722 17.6863 30.807 17.6863H28.5642V17.6848ZM15.1001 43.0756V57.283H13.4155V45.1737L13.2749 45.1346C13.1647 45.3766 13.0385 45.6128 12.9458 45.8634C11.6149 49.4352 10.2767 53.0055 8.97483 56.5889C8.76607 57.1656 8.49351 57.4467 7.86866 57.3424C7.64781 57.3065 7.42261 57.3065 7.20176 57.3424C6.70884 57.4221 6.52037 57.1772 6.3609 56.7483C5.00101 53.0534 3.61648 49.3686 2.23919 45.6823C2.17581 45.4761 2.06281 45.2885 1.91009 45.136V57.2873H0.268951V43.1161H3.03802L7.64829 55.4891C7.85126 54.9776 8.00639 54.6096 8.14556 54.2343C9.45036 50.7306 10.761 47.2298 12.0455 43.7189C12.2281 43.2147 12.4847 43.0263 13.0168 43.064C13.6822 43.1103 14.3506 43.0756 15.1001 43.0756ZM60.2156 43.077C60.8245 43.077 61.4001 43.0249 61.9553 43.1017C62.1873 43.1335 62.4395 43.4016 62.586 43.6233C64.8621 47.082 67.1237 50.5509 69.3897 54.0169C69.5362 54.2415 69.6884 54.4647 69.9755 54.669V43.1132H71.5891V57.3337C70.999 57.3337 70.4075 57.3786 69.829 57.3091C69.6261 57.2844 69.41 57.0106 69.2738 56.8019C66.9759 53.2982 64.6896 49.7873 62.4018 46.2779C62.2554 46.0562 62.0974 45.8403 61.8219 45.4403V57.2975H60.2156V43.077ZM90.381 44.542V55.8137C91.7061 55.8137 92.9732 55.8717 94.233 55.8021C96.8354 55.6572 98.2823 54.6212 98.5751 52.4752C98.7737 51.0233 98.752 49.5091 98.594 48.0485C98.4156 46.3865 97.4327 45.1259 95.7263 44.868C93.9808 44.6043 92.1889 44.639 90.381 44.542ZM88.6906 43.2118C91.0928 43.2118 93.4603 43.0393 95.7944 43.2581C98.3417 43.4972 99.8466 45.094 100.387 47.6486C100.751 49.355 100.744 51.1193 100.368 52.823C99.7581 55.621 97.9836 57.1207 94.9231 57.2902C92.8703 57.4032 90.8058 57.312 88.6906 57.312V43.2118ZM19.0725 43.1089H20.7687V43.9377C20.7687 46.5459 20.7542 49.1527 20.7716 51.7594C20.7934 54.8023 21.8155 55.8079 24.8614 55.8267C25.9749 55.8325 27.0868 55.8267 28.2916 55.8267V43.119H30.0183V57.2294C29.9965 57.2497 29.9603 57.312 29.924 57.312C27.7871 57.3149 25.6472 57.409 23.5161 57.2873C20.7861 57.1308 19.2494 55.7137 19.1116 52.9896C18.9464 49.725 19.0725 46.4445 19.0725 43.1103M51.4778 44.8694L51.3053 44.8665L48.6624 52.0159H54.1178L51.4778 44.8694ZM44.8596 57.3366L50.3789 43.1234C50.4804 43.1031 50.5268 43.0857 50.5761 43.0843C52.4289 43.0031 52.4318 43.0031 53.0929 44.7057C54.6238 48.647 56.1519 52.5897 57.6814 56.5324C57.7698 56.7599 57.8481 56.9917 57.9713 57.3351C57.3972 57.3351 56.8869 57.3728 56.3896 57.3134C56.2171 57.2931 56.0055 57.0569 55.9301 56.87C55.5728 55.9745 55.2382 55.07 54.9268 54.1575C54.7876 53.7532 54.5905 53.575 54.128 53.5837C52.3158 53.6127 50.5036 53.6069 48.6942 53.588C48.2666 53.5822 48.0288 53.675 47.8867 54.13C47.6243 54.9776 47.2314 55.7876 46.9734 56.6367C46.8095 57.1786 46.5645 57.4206 45.9904 57.3453C45.6541 57.2989 45.3061 57.3366 44.8596 57.3366ZM43.0155 43.1408V44.6289C41.9224 44.6289 40.8611 44.6231 39.7999 44.6289C38.8807 44.6347 37.9601 44.6057 37.0453 44.6753C35.813 44.768 35.136 45.6345 35.149 46.9879C35.1606 48.3615 35.8275 49.2034 37.0569 49.2961C37.8963 49.3599 38.743 49.3251 39.5868 49.3454C43.0445 49.428 43.9013 51.5913 43.5664 54.2068C43.3286 56.0644 42.321 57.1149 40.3755 57.2511C38.1602 57.4076 35.9247 57.2888 33.663 57.2888V55.8267H34.4401C36.0537 55.8267 37.6687 55.847 39.2823 55.8195C41.1018 55.7876 41.9137 54.9008 41.8238 53.1055C41.7542 51.7261 41.0119 50.9726 39.6172 50.9146C38.7995 50.8784 37.979 50.9103 37.1599 50.8799C34.1371 50.7639 33.0947 48.9121 33.4049 46.2692C33.6369 44.2927 34.6735 43.2697 36.6684 43.164C38.7662 43.0524 40.8727 43.1393 43.014 43.1393M86.2984 55.4645H76.9402V51.2392H85.4576V49.2918H76.9547V44.9853H85.4532V43.1886H75.1323V57.3714H86.2999L86.2984 55.4645Z" fill="black"/>
<path fill-rule="evenodd" clip-rule="evenodd" d="M177.984 52.7258V52.7273H138.002V57.7915H165.518V57.8321H177.985L177.984 52.7258Z" fill="black"/>
</svg>
